<svg width="18" height="18" viewBox="0 0 18 18" fill="none" xmlns="http://www.w3.org/2000/svg">
<path fill-rule="evenodd" clip-rule="evenodd" d="M2.12067 0.574918C2.31751 0.378368 2.55388 0.225896 2.81411 0.127607C3.07434 0.0293176 3.35249 -0.0125448 3.63012 0.00479393C3.90776 0.0221327 4.17853 0.0982766 4.42451 0.22818C4.67049 0.358083 4.88605 0.538779 5.05692 0.758293L7.07629 3.35254C7.44642 3.82842 7.57692 4.44829 7.43067 5.03329L6.81529 7.49704C6.78348 7.62465 6.78519 7.75832 6.82028 7.88507C6.85537 8.01182 6.92263 8.12734 7.01554 8.22042L9.77967 10.9845C9.87286 11.0776 9.98857 11.145 10.1155 11.1801C10.2425 11.2152 10.3764 11.2168 10.5042 11.1848L12.9668 10.5694C13.2555 10.4972 13.5568 10.4916 13.848 10.553C14.1392 10.6144 14.4126 10.7412 14.6475 10.9238L17.2418 12.942C18.1744 13.6677 18.2599 15.0458 17.4252 15.8794L16.2619 17.0427C15.4294 17.8752 14.1852 18.2408 13.0253 17.8324C10.0566 16.7879 7.36122 15.0884 5.13904 12.8599C2.91074 10.6381 1.21123 7.94306 0.166542 4.97479C-0.240708 3.81604 0.124917 2.57067 0.957417 1.73817L2.12067 0.574918Z" fill="white"/>
</svg>
